<svg xmlns="http://www.w3.org/2000/svg" xml:space="preserve" width="64" height="64" id="e-payment">
  <path fill="#FF9100" d="M36 61.3 61.3 36c2.2-2.2 2.2-5.8 0-8L36 2.7c-2.2-2.2-5.8-2.2-8 0L2.7 28c-2.2 2.2-2.2 5.8 0 8L28 61.3a5.5 5.5 0 0 0 8 0z"></path>
  <path fill="#FF9100" d="M36 61.3 61.3 36c2.2-2.2 2.2-5.8 0-8L36 2.7c-2.2-2.2-5.8-2.2-8 0L2.7 28c-2.2 2.2-2.2 5.8 0 8L28 61.3a5.5 5.5 0 0 0 8 0z"></path>
  <path fill="#F16823" d="m21.982 46.505 17.465-17.466 14.425 14.425L36.407 60.93z"></path>
  <path fill="#F16823" d="M61.3 36c2.2-2.2 2.2-5.8 0-8L36 2.7c-2.2-2.2-5.8-2.2-8 0L2.7 28c-2.2 2.2-2.2 5.8 0 8"></path>
  <path fill="#E84E0A" d="M45.5 18.5 19.2 44.8c3.3 2.9 7.5 4.6 12.2 4.6C41.7 49.4 50 41 50 30.7c0-4.6-1.7-8.9-4.5-12.2z"></path>
  <path fill="#07A8EF" d="M48.7 15.3 36 2.7c-2.2-2.2-5.8-2.2-8 0L2.7 28c-2.2 2.2-2.2 5.8 0 8l12.7 12.7 33.3-33.4z"></path>
  <path fill="#0086D1" d="m2.7 36 12.7 12.7 33.4-33.4L36 2.7c-2.2-2.2-5.8-2.2-8 0"></path>
  <path fill="#0063A6" d="m15.3 48.7 33.4-33.4L36 2.7c-2.2-2.2-5.8-2.2-8 0"></path>
  <path fill="#FFF" d="M44.8 34.6c-1 5-5.4 9.3-10.8 9.9-2.2.2-4.2-.1-6.1-.9L23.5 48c3.2 1.9 7.1 2.9 11.1 2.5 6.8-.7 12.4-5.2 15-11.1l-4.8-4.8z"></path>
  <path fill="#FFF" d="M44.8 34.6c-1 5-5.4 9.3-10.8 9.9-2.2.2-4.2-.1-6.1-.9L23.5 48c3.2 1.9 7.1 2.9 11.1 2.5 6.8-.7 12.4-5.2 15-11.1l-4.8-4.8z"></path>
  <path fill="#CBE4EF" d="M49.5 39.3 45.3 35c-.2.3-.5.6-.8.8C43.1 40.3 39 44 34 44.5c-1.8.2-3.5 0-5.1-.6 2.7 1.1 5.8 1.7 8.9 1.3 4.7-.4 8.8-2.7 11.7-5.9z"></path>
  <path fill="#FFF" d="M19.8 45.2c.7.7 1.4 1.3 2.2 1.9l25.6-25.6c-.6-.8-1.2-1.5-1.9-2.2L19.8 45.2zM44.6 18.3c-.9-.7-1.6-1.3-2.4-1.8-3.3-2-7.2-3-11.3-2.6-10.1 1-17.4 10-16.4 20.1.3 3.1 1.3 5.7 2.8 8.1.4.7 1.5 2 1.5 2l25.8-25.8zM32 19.8c2.1-.2 4.2.1 6 .9L21.8 36.9c-.5-1.1-.8-2.3-.9-3.5-.6-6.8 4.3-12.9 11.1-13.6z"></path>
  <path fill="#CBE4EF" d="M14.5 34c.3 3.1 1.3 5.7 2.8 8.1.4.7 1.5 2 1.5 2l25.8-25.8c-.9-.7-1.6-1.3-2.4-1.8-3.3-2-7.2-3-11.3-2.6m1.1 5.9c2.1-.2 4.2.1 6 .9L21.8 36.9c-.5-1.1-.8-2.3-.9-3.5-.6-6.8 4.3-12.9 11.1-13.6zM24.2 40.9c.7.7 1.5 1.3 2.4 1.8l21.1-21.1c-.6-.8-1.2-1.5-1.9-2.2L24.2 40.9z"></path>
</svg>
