<svg xmlns="http://www.w3.org/2000/svg" xml:space="preserve" width="64" height="64" id="unionpay">
  <path fill="#009DA5" d="M25.3 35.3h.3c.3 0 .5-.1.6-.3l.9-1.3h2.3l-.5.8h2.8l-.4 1.3H28c-.4.6-.8.8-1.4.8h-1.7l.4-1.3m-.4 1.8h6l-.4 1.4h-2.4l-.4 1.4h2.4l-.4 1.4h-2.4l-.6 2c-.1.3 0 .5.5.4h1.9l-.4 1.3H25c-.7 0-.9-.4-.7-1.2l.7-2.6h-1.5l.4-1.4h1.5l.4-1.4h-1.4l.5-1.3zm9.7-3.4-.1.8s1.1-.9 2.2-.9h3.8L39 39c-.1.6-.6.9-1.6.9h-4.3l-1 3.7c-.1.2 0 .3.2.3h.9l-.3 1.1h-2.2c-.8 0-1.2-.2-1-.8l2.9-10.6h2zm3.2 1.5h-3.4l-.4 1.4s.6-.4 1.5-.4h2l.3-1zm-1.2 3.3c.3 0 .4-.1.4-.3l.2-.8h-3.4l-.3 1.1h3.1zm-2.3 1.7h2v.9h.5c.3 0 .4-.1.4-.3l.2-.6H39l-.2.8c-.2.7-.7 1-1.5 1.1h-1.1v1.5c0 .2.2.4.6.4h1l-.3 1.2h-2.4c-.7 0-1-.3-1-1l.2-4z"></path>
  <path fill="#02CCCC" d="m27.6 36.3.4-.4h3.3l.4-1.3h-2.8l.5-.8h-2.3l-.9 1.2c-.1.2-.3.3-.6.3h-.3l-.1.3c.8.2 1.6.5 2.4.7zM34.5 34.5l.1-.8h-2l-.9 3.2c.5 0 1.1.1 1.6.1 2.3 0 4.4-.3 6.5-.9l.7-2.4h-3.8c-1.1 0-2.2.8-2.2.8zm3 1.7h-2c-1 0-1.5.4-1.5.4l.4-1.4h3.4l-.3 1z"></path>
  <path fill="#009DA5" d="m42.6 35.3.5-1.6h2.3l-.1.6s1.2-.6 2-.6h2.9l-.5 1.6h-.4l-2.2 7.6h.4l-.4 1.5h-.5l-.2.7h-2.2l.2-.7H40l.4-1.5h.4l2.2-7.6h-.4m2.5 0-.6 2.1s1-.4 1.9-.5c.2-.7.4-1.6.4-1.6h-1.7zm-.8 3.1-.6 2.2s1.1-.5 1.9-.6l.4-1.6h-1.7zm.4 4.5.4-1.6h-1.7l-.4 1.6h1.7zm5.6-9.3h2.2l.1.8c0 .2.1.3.4.3h.4l-.4 1.4h-1.6c-.6 0-.9-.2-1-.7l-.1-1.8zm-.6 3h7l-.4 1.4h-2.2l-.4 1.4h2.2l-.4 1.5H53l-.6.9h1.2l.3 1.7c0 .2.2.3.4.3h.4l-.4 1.4H53c-.7 0-1.1-.2-1.1-.7l-.3-1.6-1.1 1.7c-.3.5-.7.7-1.2.7h-2.1l.4-1.4h.6c.3 0 .5-.1.7-.4l1.7-2.5h-2.2l.4-1.5h2.4l.4-1.4h-2.4l.5-1.5z"></path>
  <path fill="#02CCCC" d="M45.4 33.8h-2.3l-.4 1.3c.9-.4 1.8-.8 2.7-1.3z"></path>
  <path fill="#FF7F29" d="M10.3 26.6c-.3 1.3-.9 2.3-1.8 3-1 .7-2.2 1.1-3.7 1.1-1.4 0-2.5-.4-3.1-1.1-.5-.5-.7-1.2-.7-2 0-.3 0-.7.1-1.1l1.6-7.7h2.4l-1.6 7.6c0 .2-.1.4-.1.6 0 .4.1.7.3 1 .3.4.8.6 1.4.6.7 0 1.4-.2 1.8-.5.5-.4.8-.9.9-1.6l1.6-7.6H12l-1.7 7.7"></path>
  <path fill="#EA2227" d="M10.3 26.6c-.3 1.3-.9 2.3-1.8 3-1 .7-2.2 1.1-3.7 1.1-1.4 0-2.5-.4-3.1-1.1-.5-.5-.7-1.2-.7-2 0-.3 0-.7.1-1.1l3.5-7.7h.5l-1.6 7.6c0 .2-.1.4-.1.6 0 .4.1.7.3 1 .3.4.8.6 1.4.6.7 0 1.4-.2 1.8-.5.5-.4.8-.9.9-1.6l3.5-7.6h.7l-1.7 7.7M12.6 23.6h1.7l-.2 1 .2-.3c.6-.6 1.2-.9 2-.9.7 0 1.2.2 1.6.6.3.4.4 1 .3 1.7l-.9 4.7h-1.8l.8-4.3c.1-.4.1-.8-.1-1-.1-.2-.4-.3-.8-.3-.5 0-.8.1-1.1.4-.3.3-.5.7-.6 1.2l-.8 4h-1.8l1.5-6.8"></path>
  <path fill="#A5002F" d="M32.2 23.6h1.7l-.2 1 .2-.3c.6-.6 1.2-.9 2-.9.7 0 1.2.2 1.6.6.3.4.4 1 .3 1.7l-.9 4.7h-1.8l.9-4.3c.1-.4.1-.8-.1-1-.1-.2-.4-.3-.8-.3-.5 0-.8.1-1.1.4-.3.3-.5.7-.6 1.2l-.8 4h-1.8l1.4-6.8"></path>
  <path fill="#EA2227" d="M20.5 23.6h1.9l-1.5 6.9H19l1.5-6.9m.6-2.5H23l-.4 1.7h-1.9l.4-1.7zM24.1 30c-.5-.5-.7-1.1-.7-1.9v-.5c0-.2 0-.3.1-.5.2-1.1.7-2 1.4-2.7.7-.7 1.6-1 2.7-1 .9 0 1.5.2 2 .7.5.5.7 1.1.7 2v.5c0 .2 0 .3-.1.5-.2 1.1-.7 2-1.4 2.6-.7.6-1.6 1-2.7 1-.8 0-1.5-.3-2-.7m3.6-1.4c.3-.4.6-.9.7-1.6 0-.1 0-.2.1-.4v-.3c0-.4-.1-.8-.3-1-.2-.2-.5-.4-.9-.4-.5 0-1 .2-1.3.6-.3.4-.6.9-.7 1.7 0 .1 0 .2-.1.3v.3c0 .4.1.8.3 1 .2.2.5.3.9.3.6 0 1-.1 1.3-.5"></path>
  <path fill="#1398E2" d="M40.7 19.3h5c1 0 1.7.2 2.2.6.5.4.8 1 .8 1.9v.5c0 .2-.1.4-.1.6-.2 1.1-.7 1.9-1.5 2.6-.8.6-1.7 1-2.8 1h-2.7l-.8 4h-2.3l2.2-11.2m1.2 5.2h2.2c.6 0 1-.1 1.4-.4.3-.3.5-.7.7-1.2v-.5c0-.4-.1-.7-.4-.9-.3-.2-.7-.3-1.3-.3h-1.9l-.7 3.3z"></path>
  <path fill="#0872B9" d="M42.6 19.3h3c1 0 1.7.2 2.2.6.5.4.8 1 .8 1.9v.5c0 .2-.1.4-.1.6-.2 1.1-.7 1.9-1.5 2.6-.8.6-1.7 1-2.8 1h-2.7l-.8 4h-2.3l4.2-11.2m-.7 5.2h2.2c.6 0 1-.1 1.4-.4.3-.3.5-.7.7-1.2v-.5c0-.4-.1-.7-.4-.9-.3-.2-.7-.3-1.3-.3h-1.9l-.7 3.3z"></path>
  <path fill="#055093" d="M58.9 31.8c-.7 1.6-1.4 2.5-1.8 2.9-.4.4-1.2 1.4-3.2 1.3l.2-1.2c1.6-.5 2.5-2.8 3-3.8l-.6-7.4h2.4l.1 4.7 2-4.7h2l-4.1 8.2"></path>
  <path fill="#0872B9" d="m53.3 24.1-.8.6c-.8-.7-1.6-1.1-3.1-.4-2 .9-3.7 8.1 1.8 5.7l.3.4 2.2.1 1.4-6.5-1.8.1M52 27.7c-.4 1-1.1 1.7-1.7 1.5-.6-.2-.8-1.2-.5-2.2.4-1 1.1-1.7 1.7-1.5.7.2.9 1.2.5 2.2"></path>
  <path fill="#055093" d="M49.7 30.5c.4-.1.9-.2 1.5-.4l.3.4 2.2.1 1.4-6.5h-.5c-1 2.5-2.8 4.7-4.9 6.4z"></path>
  <path fill="#A5002F" d="M29.6 24.1c-.5-.5-1.2-.7-2-.7h-.5c-.2.6-.5 1.2-.8 1.8.3-.2.6-.3 1-.3s.7.1.9.4c.2.2.3.6.3 1v.3c0 .1 0 .2-.1.4-.1.7-.4 1.3-.7 1.6-.3.4-.8.5-1.3.5-.4 0-.7-.1-.9-.3-.2-.2-.3-.6-.3-1v-.3c0-.1 0-.2.1-.3 0-.2.1-.3.1-.4-.5.8-1.2 1.6-1.9 2.3.1.4.3.7.6 1 .5.5 1.2.7 2 .7 1 0 1.9-.3 2.7-1 .7-.6 1.2-1.5 1.4-2.6 0-.2.1-.3.1-.5v-.5c0-1-.2-1.6-.7-2.1z"></path>
</svg>
